# xmcd
#
# Track frame offsets:
#	150
#	27580
#	52182
#	75557
#	90932
#	108635
#	136320
#	156205
#	189593
#	232085
#	257683
#	280965
#
# Disc length: 4180 seconds
#
# Revision: 1
# Processed by: cddbd v1.5.2PL0 Copyright (c) Steve Scherf et al.
# Submitted via: EasyCDDAExtractor 10.0.1.1
#
DISCID=a510520c
DTITLE=Chris Tofield - Broken Strings
DYEAR=1900
DGENRE=
TTITLE0=Unknown1
TTITLE1=Unknown2
TTITLE2=Unknown3
TTITLE3=Unknown4
TTITLE4=Unknown5
TTITLE5=Unknown6
TTITLE6=Unknown7
TTITLE7=Unknown8
TTITLE8=Unknown9
TTITLE9=Unknown10
TTITLE10=Unknown11
TTITLE11=Unknown12
EXTD=
EXTT0=
EXTT1=
EXTT2=
EXTT3=
EXTT4=
EXTT5=
EXTT6=
EXTT7=
EXTT8=
EXTT9=
EXTT10=
EXTT11=
PLAYORDER=
